<?xml version="1.0" encoding="UTF-8" standalone="no"?>
<svg
   xmlns:dc="http://purl.org/dc/elements/1.1/"
   xmlns:cc="http://creativecommons.org/ns#"
   xmlns:rdf="http://www.w3.org/1999/02/22-rdf-syntax-ns#"
   xmlns:svg="http://www.w3.org/2000/svg"
   xmlns="http://www.w3.org/2000/svg"
   id="svg4"
   version="1.1"
   viewBox="0 0 480 512">
  <metadata
     id="metadata10">
    <rdf:RDF>
      <cc:Work
         rdf:about="">
        <dc:format>image/svg+xml</dc:format>
        <dc:type
           rdf:resource="http://purl.org/dc/dcmitype/StillImage" />
        <dc:title></dc:title>
      </cc:Work>
    </rdf:RDF>
  </metadata>
  <defs
     id="defs8" />
  <path
     id="path2"
     d="M186.1 328.7c0 20.9-10.9 55.1-36.7 55.1s-36.7-34.2-36.7-55.1 10.9-55.1 36.7-55.1 36.7 34.2 36.7 55.1zM480 278.2c0 31.9-3.2 65.7-17.5 95-37.9 76.6-142.1 74.8-216.7 74.8-75.8 0-186.2 2.7-225.6-74.8-14.6-29-20.2-63.1-20.2-95 0-41.9 13.9-81.5 41.5-113.6-5.2-15.8-7.7-32.4-7.7-48.8 0-21.5 4.9-32.3 14.6-51.8 45.3 0 74.3 9 108.8 36 29-6.9 58.8-10 88.7-10 27 0 54.2 2.9 80.4 9.2 34-26.7 63-35.2 107.8-35.2 9.8 19.5 14.6 30.3 14.6 51.8 0 16.4-2.6 32.7-7.7 48.2 27.5 32.4 39 72.3 39 114.2zm-64.3 50.5c0-43.9-26.7-82.6-73.5-82.6-18.9 0-37 3.4-56 6-14.9 2.3-29.8 3.2-45.1 3.2-15.2 0-30.1-.9-45.1-3.2-18.7-2.6-37-6-56-6-46.8 0-73.5 38.7-73.5 82.6 0 87.8 80.4 101.3 150.4 101.3h48.2c70.3 0 150.6-13.4 150.6-101.3zm-82.6-55.1c-25.8 0-36.7 34.2-36.7 55.1s10.9 55.1 36.7 55.1 36.7-34.2 36.7-55.1-10.9-55.1-36.7-55.1z" />
  <path
     id="path18"
     d="m 47.575511,62.99876 c -7.624142,15.054188 -14.785765,31.064978 -14.758736,48.29175 -0.404908,17.86818 1.897471,35.90641 7.401035,52.93593 -20.292077,24.609 -34.7699965,54.4306 -39.1415685,86.18356 -4.456328,31.87707 -1.85272604,64.78917 7.355854,95.6175 6.6165975,21.44942 16.5763195,42.69898 33.6887505,57.8023 24.885705,23.95039 59.310344,34.45434 92.674254,39.76187 46.58593,7.39115 93.90286,5.10008 140.87175,5.12172 39.00091,0.0739 78.73037,-2.2866 115.88606,-15.08265 27.89515,-9.39292 53.70082,-27.43168 68.26674,-53.47386 17.99136,-31.41272 21.32944,-68.5756 21.26311,-104.07637 -0.30252,-37.77667 -10.75698,-76.19993 -34.07533,-106.38895 -1.76642,-3.00664 -6.26787,-5.46639 -3.70881,-9.25927 5.78792,-19.9097 8.07814,-41.1431 5.13347,-61.730405 -2.23822,-12.604368 -7.74226,-24.506551 -13.77602,-35.597037 -8.881,-0.958453 -18.29076,0.470914 -27.34005,1.100664 -25.00493,2.159931 -49.13717,11.196968 -69.76143,25.431083 -4.15742,2.298722 -7.80971,6.237156 -11.8308,8.089971 -22.08025,-4.728196 -44.49294,-8.441463 -67.14776,-8.139325 -28.42225,-0.392558 -57.08327,-0.140791 -85.00442,5.841764 -5.5674,0.706707 -11.47613,2.966087 -16.81927,2.737268 C 135.49014,81.412521 110.35791,69.101734 83.379079,65.349485 71.709615,63.627785 59.766216,62.668335 48.056737,62.808262 Z m 92.481859,184.57589 c 28.1806,-0.33429 55.72234,7.29171 83.87138,8.3524 26.77371,1.48796 53.56889,-0.92607 80.00195,-5.13227 17.25466,-2.54979 35.05154,-4.56594 52.28599,-2.32448 20.66809,3.94495 39.41004,18.17463 48.51842,37.38979 8.15337,15.8582 10.51432,33.92055 9.35547,51.51785 -0.7758,23.15399 -10.64279,46.49348 -28.91044,61.35185 -22.3043,18.80024 -52.08665,25.22586 -80.34628,28.25095 -24.14897,2.2742 -48.4957,1.4504 -72.74802,1.82013 -37.41247,0.0942 -76.19998,-0.436 -111.04477,-15.26869 -21.718784,-9.22283 -40.425148,-26.53031 -47.833584,-49.3169 -8.600039,-26.72554 -7.616987,-57.37129 6.343472,-82.1875 11.909893,-21.56999 35.745582,-35.59164 60.506412,-34.45313 z"
     style="fill:#ffffff;stroke-width:0.714286" />
  <path
     id="path20"
     d="m 149.00827,272.71695 c -13.76993,-0.33995 -24.45238,10.80629 -29.73494,22.54185 -5.17629,10.64807 -7.82741,22.46168 -7.04966,34.31641 -0.82527,14.91073 4.18061,29.85081 12.76814,41.94476 6.1996,8.76248 16.82606,14.90981 27.79017,13.0106 14.92447,-1.7206 24.81947,-15.4495 29.42263,-28.66645 8.5207,-23.34854 5.86943,-51.40846 -9.41705,-71.39773 -5.70677,-7.16721 -14.38089,-12.3185 -23.77929,-11.74944 z"
     style="fill:#ffffff;stroke-width:0.714286" />
  <path
     id="path22"
     d="m 330.82328,273.08247 c -12.39191,-0.20216 -21.79153,10.267 -26.94336,20.53292 -5.48758,10.88968 -8.89724,22.96586 -7.99526,35.24553 -0.85805,16.63011 4.76346,33.73477 15.89007,46.19002 6.69315,7.66538 17.39711,11.69645 27.39397,9.0053 14.69373,-3.1998 23.35359,-17.6034 27.68276,-30.92913 7.15655,-22.78131 4.54557,-49.71921 -10.52455,-68.80999 -5.77037,-7.10264 -14.60395,-12.38581 -24.0318,-11.24311 -0.49061,0.003 -0.98122,0.006 -1.47183,0.008 z"
     style="fill:#ffffff;stroke-width:0.714286" />
</svg>
